<svg xmlns="http://www.w3.org/2000/svg" viewBox="0 0 160 100" role="img" aria-label="Closeboard featheredge fence"><title>Closeboard featheredge fence</title><rect width="160" height="100" fill="#eef3e8"/><rect y="86" width="160" height="14" fill="#bfd6ad"/><path d="M0 86h160" stroke="#8fbb72" stroke-width="2"/><rect x="6" y="20" width="148" height="60" fill="#c49a6c"/><path d="M10 20v60" stroke="#9c7648" stroke-width="1"/><path d="M15 20v60" stroke="#9c7648" stroke-width="1"/><path d="M20 20v60" stroke="#9c7648" stroke-width="1"/><path d="M25 20v60" stroke="#9c7648" stroke-width="1"/><path d="M30 20v60" stroke="#9c7648" stroke-width="1"/><path d="M35 20v60" stroke="#9c7648" stroke-width="1"/><path d="M40 20v60" stroke="#9c7648" stroke-width="1"/><path d="M45 20v60" stroke="#9c7648" stroke-width="1"/><path d="M50 20v60" stroke="#9c7648" stroke-width="1"/><path d="M55 20v60" stroke="#9c7648" stroke-width="1"/><path d="M60 20v60" stroke="#9c7648" stroke-width="1"/><path d="M65 20v60" stroke="#9c7648" stroke-width="1"/><path d="M70 20v60" stroke="#9c7648" stroke-width="1"/><path d="M75 20v60" stroke="#9c7648" stroke-width="1"/><path d="M80 20v60" stroke="#9c7648" stroke-width="1"/><path d="M85 20v60" stroke="#9c7648" stroke-width="1"/><path d="M90 20v60" stroke="#9c7648" stroke-width="1"/><path d="M95 20v60" stroke="#9c7648" stroke-width="1"/><path d="M100 20v60" stroke="#9c7648" stroke-width="1"/><path d="M105 20v60" stroke="#9c7648" stroke-width="1"/><path d="M110 20v60" stroke="#9c7648" stroke-width="1"/><path d="M115 20v60" stroke="#9c7648" stroke-width="1"/><path d="M120 20v60" stroke="#9c7648" stroke-width="1"/><path d="M125 20v60" stroke="#9c7648" stroke-width="1"/><path d="M130 20v60" stroke="#9c7648" stroke-width="1"/><path d="M135 20v60" stroke="#9c7648" stroke-width="1"/><path d="M140 20v60" stroke="#9c7648" stroke-width="1"/><path d="M145 20v60" stroke="#9c7648" stroke-width="1"/><path d="M150 20v60" stroke="#9c7648" stroke-width="1"/><rect x="6" y="80" width="148" height="6" fill="#6e5134"/><rect x="6" y="18" width="7" height="68" fill="#7a5a3a" opacity="0.35"/><rect x="76" y="18" width="7" height="68" fill="#7a5a3a" opacity="0.35"/><rect x="147" y="18" width="7" height="68" fill="#7a5a3a" opacity="0.35"/><rect x="3" y="15" width="154" height="5" rx="1" fill="#6e5134"/></svg>
